<svg xmlns="http://www.w3.org/2000/svg"
     width="149.000000pt" height="340.000000pt" viewBox="0 0 149.000000 340.000000" preserveAspectRatio="xMidYMid meet">
  <path id="Selection #1"
        fill="#fff" stroke="black" stroke-width="1"
        d="M 46.00,36.98
           C 43.21,37.06 37.56,38.08 35.42,36.98
             32.64,35.52 28.90,29.69 23.00,29.27
             11.00,28.40 17.59,45.99 21.00,51.00
             21.00,51.00 20.00,46.00 20.00,46.00
             32.45,38.28 38.15,38.98 52.00,39.00
             62.58,39.02 69.07,41.39 78.00,47.05
             84.36,51.09 91.36,56.30 93.00,64.00
             93.00,64.00 85.00,66.00 85.00,66.00
             85.00,66.00 98.00,65.02 98.00,65.02
             109.53,64.79 126.08,68.30 136.00,74.21
             141.54,77.51 146.13,79.99 149.00,86.00
             149.00,86.00 139.00,93.40 139.00,93.40
             131.31,98.57 121.07,101.94 112.00,103.58
             105.83,104.69 100.99,106.65 96.00,102.00
             92.40,114.19 78.41,123.76 67.00,127.95
             63.91,129.08 53.56,132.99 50.99,130.17
             49.62,128.66 50.00,123.09 50.00,121.00
             64.95,120.66 83.15,108.81 87.37,94.00
             88.28,90.78 87.95,86.41 88.00,83.00
             88.18,72.26 97.37,77.68 98.83,80.15
             101.50,84.69 97.98,88.64 100.00,96.00
             101.21,88.63 106.04,88.51 105.18,84.00
             103.98,77.76 93.50,74.79 88.00,75.18
             72.76,76.27 69.47,80.64 61.00,82.46
             58.72,82.95 56.32,82.88 54.00,83.00
             62.94,86.85 64.74,88.68 75.00,91.57
             77.14,92.18 82.78,93.03 83.96,94.73
             86.14,97.86 81.99,102.07 78.98,102.51
             74.67,103.15 62.27,97.65 58.00,95.69
             58.00,95.69 43.00,87.40 43.00,87.40
             41.31,86.37 37.94,84.53 37.17,82.67
             35.82,79.47 39.91,75.66 43.00,75.87
             44.88,76.00 49.13,78.93 51.00,80.00
             51.96,75.89 55.37,74.97 59.00,73.31
             68.83,68.80 75.48,68.91 85.00,66.00
             79.65,63.47 78.41,60.92 74.00,57.53
             67.37,52.43 59.38,49.10 51.00,49.00
             46.62,48.95 41.22,48.77 37.00,49.67
             30.12,51.14 27.78,54.51 21.00,51.00
             23.14,55.38 23.85,56.10 26.30,60.00
             27.52,61.94 29.30,64.62 29.18,66.99
             29.02,70.34 26.13,73.17 22.58,70.51
             16.00,65.60 9.82,54.39 6.26,47.00
             -1.16,31.64 0.00,16.49 0.00,0.00
             18.79,0.87 44.18,16.93 46.00,36.98 Z
           M 36.83,77.00
           C 34.00,80.12 29.42,85.73 25.37,80.84
             21.80,76.52 28.06,72.09 30.70,69.00
             33.27,65.99 35.74,62.68 37.24,59.00
             38.12,56.84 38.87,52.32 40.58,51.02
             42.24,49.76 45.95,50.01 48.00,50.00
             47.99,62.74 45.46,67.48 36.83,77.00 Z
           M 17.01,73.00
           C 19.75,77.58 24.74,80.71 30.00,89.00
             23.71,95.97 21.58,92.91 14.04,85.00
             5.36,75.89 2.04,67.71 8.00,56.00
             16.71,64.53 13.13,66.54 17.01,73.00 Z
           M 34.42,100.92
           C 34.42,100.92 29.27,106.15 29.27,106.15
             28.12,107.31 26.45,109.26 24.91,109.83
             21.44,111.11 18.10,107.41 18.88,104.00
             19.49,101.35 23.10,97.92 25.00,96.00
             31.67,89.28 36.14,82.76 44.00,92.00
             39.86,95.59 38.28,96.80 34.42,100.92 Z
           M 15.85,108.00
           C 18.13,112.91 23.23,116.03 28.00,118.13
             29.93,118.97 33.80,120.05 35.00,121.70
             36.47,123.71 35.96,127.98 32.77,128.61
             30.59,129.05 26.09,127.39 24.00,126.55
             17.32,123.85 9.74,118.57 6.45,112.00
             2.98,105.06 5.30,91.21 13.17,88.34
             24.17,91.78 11.82,99.27 15.85,108.00 Z
           M 15.43,126.32
           C 16.57,128.94 14.27,142.35 24.00,140.14
             32.94,138.11 39.99,124.78 38.66,116.00
             37.93,111.17 34.86,107.62 34.81,105.00
             34.75,101.95 37.81,98.98 40.90,100.17
             46.89,102.48 48.11,116.49 47.99,122.00
             47.60,139.03 38.53,153.25 24.00,162.07
             24.00,162.07 5.00,171.00 5.00,171.00
             21.87,171.83 44.43,189.66 46.00,206.98
             43.21,207.06 37.56,208.08 35.42,206.98
             32.75,205.58 28.87,199.69 23.00,199.27
             11.00,198.40 17.59,215.99 21.00,221.00
             21.00,221.00 20.00,216.00 20.00,216.00
             32.45,208.28 38.15,208.98 52.00,209.00
             62.58,209.02 69.07,211.39 78.00,217.05
             84.36,221.09 91.36,226.30 93.00,234.00
             93.00,234.00 85.00,236.00 85.00,236.00
             85.00,236.00 98.00,235.02 98.00,235.02
             109.53,234.79 126.08,238.30 136.00,244.21
             141.54,247.51 146.13,249.99 149.00,256.00
             149.00,256.00 139.00,263.40 139.00,263.40
             131.31,268.57 121.07,271.94 112.00,273.58
             105.83,274.69 100.99,276.65 96.00,272.00
             92.40,284.19 78.41,293.76 67.00,297.95
             63.91,299.08 53.56,302.99 50.99,300.17
             49.62,298.66 50.00,293.09 50.00,291.00
             64.95,290.66 83.15,278.81 87.37,264.00
             88.28,260.78 87.95,256.41 88.00,253.00
             88.18,242.26 97.37,247.68 98.83,250.15
             101.50,254.69 97.98,258.64 100.00,266.00
             101.21,258.63 106.04,258.51 105.18,254.00
             103.98,247.76 93.50,244.79 88.00,245.18
             72.76,246.27 69.47,250.64 61.00,252.46
             58.72,252.95 56.32,252.88 54.00,253.00
             62.94,256.85 64.74,258.68 75.00,261.57
             77.14,262.18 82.78,263.03 83.96,264.73
             86.14,267.86 81.99,272.07 78.98,272.51
             74.67,273.15 62.27,267.65 58.00,265.69
             58.00,265.69 43.00,257.40 43.00,257.40
             41.31,256.37 37.94,254.53 37.17,252.67
             35.82,249.47 39.91,245.66 43.00,245.87
             44.88,246.00 49.13,248.93 51.00,250.00
             51.96,245.89 55.37,244.97 59.00,243.31
             68.83,238.80 75.48,238.91 85.00,236.00
             79.65,233.47 78.41,230.92 74.00,227.53
             67.37,222.43 59.38,219.10 51.00,219.00
             46.62,218.95 41.22,218.77 37.00,219.67
             30.12,221.14 27.78,224.51 21.00,221.00
             22.77,224.62 28.79,233.20 29.13,236.00
             29.42,238.37 27.90,241.71 25.13,241.66
             23.04,241.63 20.37,238.43 19.05,236.98
             12.83,230.17 10.19,225.14 6.26,217.00
             -0.82,202.34 0.00,188.70 0.00,173.00
             0.00,154.46 -1.54,137.83 8.00,121.00
             10.77,122.06 14.14,123.39 15.43,126.32 Z
           M 36.83,247.00
           C 34.00,250.12 29.42,255.73 25.37,250.84
             21.80,246.52 28.06,242.09 30.70,239.00
             33.27,235.99 35.74,232.68 37.24,229.00
             38.12,226.84 38.87,222.32 40.58,221.02
             42.24,219.76 45.95,220.01 48.00,220.00
             47.99,232.74 45.46,237.48 36.83,247.00 Z
           M 17.01,243.00
           C 19.75,247.58 24.74,250.71 30.00,259.00
             23.71,265.97 21.58,262.91 14.04,255.00
             5.36,245.89 2.04,237.71 8.00,226.00
             16.71,234.53 13.13,236.54 17.01,243.00 Z
           M 34.42,270.92
           C 34.42,270.92 29.27,276.15 29.27,276.15
             28.12,277.31 26.45,279.26 24.91,279.83
             21.44,281.11 18.10,277.41 18.88,274.00
             19.49,271.35 23.10,267.92 25.00,266.00
             31.67,259.28 36.14,252.76 44.00,262.00
             39.86,265.59 38.28,266.80 34.42,270.92 Z
           M 15.85,278.00
           C 18.13,282.91 23.23,286.03 28.00,288.13
             29.93,288.97 33.80,290.05 35.00,291.70
             36.47,293.71 35.96,297.98 32.77,298.61
             30.59,299.05 26.09,297.39 24.00,296.55
             17.32,293.85 9.74,288.57 6.45,282.00
             2.98,275.06 5.30,261.21 13.17,258.34
             24.17,261.78 11.82,269.27 15.85,278.00 Z
           M 15.43,296.32
           C 16.57,298.94 14.27,312.35 24.00,310.14
             32.94,308.11 39.99,294.78 38.66,286.00
             37.93,281.17 34.86,277.62 34.81,275.00
             34.75,271.95 37.81,268.98 40.90,270.17
             46.89,272.48 48.11,286.49 47.99,292.00
             47.52,312.54 34.63,328.26 16.00,335.99
             9.76,338.58 6.84,339.85 0.00,340.00
             0.00,322.22 -1.16,307.16 8.00,291.00
             10.77,292.06 14.14,293.39 15.43,296.32 Z" />
</svg>
